<?xml version="1.0" encoding="utf-8"?>
<!-- Generator: Adobe Illustrator 16.0.0, SVG Export Plug-In . SVG Version: 6.00 Build 0)  -->
<!DOCTYPE svg PUBLIC "-//W3C//DTD SVG 1.1//EN" "http://www.w3.org/Graphics/SVG/1.1/DTD/svg11.dtd">
<svg version="1.1" id="Capa_1" xmlns="http://www.w3.org/2000/svg" xmlns:xlink="http://www.w3.org/1999/xlink" x="0px" y="0px"
	 width="250px" height="75px" viewBox="0 0 250 75" enable-background="new 0 0 250 75" xml:space="preserve">
<g>
	<g>
		<path fill="#40608F" d="M106.492,38.166l-0.111-0.147c-0.075-0.1-0.332-0.432-0.77-0.996c-0.436-0.561-0.977-1.25-1.625-2.072
			l-2.088-2.648c-0.754-0.956-1.474-1.881-2.139-2.753c-0.69-0.903-1.31-1.723-1.843-2.438c-0.259-0.348-0.482-0.652-0.667-0.912
			c0.396-0.085,0.834-0.189,1.312-0.31c0.883-0.224,1.743-0.591,2.559-1.09c0.835-0.512,1.558-1.22,2.147-2.104
			c0.605-0.91,0.913-2.104,0.913-3.551c0-0.955-0.148-1.852-0.443-2.668c-0.308-0.852-0.869-1.606-1.658-2.232
			c-0.323-0.27-0.685-0.515-1.074-0.73c-0.401-0.222-0.894-0.402-1.463-0.539c-0.545-0.129-1.216-0.234-1.994-0.31
			c-0.772-0.076-1.737-0.115-2.869-0.115h-0.839c-0.415,0-0.855,0.006-1.321,0.019c-0.455,0.013-0.884,0.019-1.29,0.019h-0.876
			c-0.394,0-0.85-0.006-1.367-0.019c-0.502-0.012-1.116-0.055-1.82-0.128l-0.624-0.064l0.015,0.627
			c0.049,2.114,0.099,4.128,0.148,6.043c0.05,1.907,0.075,3.748,0.075,5.467c0,2.708-0.019,5.24-0.056,7.524
			c-0.037,2.255-0.105,4.521-0.205,6.734l-0.031,0.693l1.501-0.274c0.241-0.043,0.597-0.065,1.058-0.065
			c0.329,0,0.68,0.018,1.047,0.053c0.358,0.034,0.692,0.088,0.991,0.157l0.712,0.164l-0.036-0.73
			c-0.148-2.996-0.229-5.51-0.242-7.472c-0.011-1.723-0.017-3.204-0.019-4.441h0.162c0.659,0.776,1.32,1.577,1.969,2.385
			c0.705,0.879,1.435,1.827,2.168,2.817c0.738,0.996,1.505,2.082,2.28,3.226c0.771,1.139,1.616,2.422,2.51,3.813l0.182,0.282
			l0.335-0.032c0.526-0.05,1.007-0.101,1.445-0.149c0.849-0.098,1.645-0.092,2.222-0.004c0.328,0.051,0.694,0.101,1.097,0.152
			l0.622,0.077V38.166z M91.481,22.767c-0.012-0.464-0.019-0.947-0.019-1.477v-3.935c0-0.689,0.017-1.382,0.05-2.062
			c0.144-0.019,0.303-0.038,0.477-0.055c0.366-0.035,0.818-0.053,1.345-0.053c0.643,0,1.341,0.048,2.073,0.145
			c0.687,0.09,1.324,0.294,1.893,0.607c0.55,0.302,1.009,0.74,1.366,1.304c0.352,0.553,0.529,1.332,0.529,2.314
			c0,1.164-0.244,2.073-0.726,2.704c-0.502,0.658-1.091,1.148-1.752,1.456c-0.688,0.322-1.39,0.525-2.086,0.605
			c-0.743,0.085-1.328,0.141-1.738,0.165c-0.431,0.024-0.778,0.037-1.032,0.037c-0.111,0-0.231-0.005-0.361-0.016v-0.401
			C91.5,23.704,91.494,23.257,91.481,22.767z"/>
		<path fill="#40608F" d="M124.932,37.111l0.018-0.207c0.024-0.305,0.044-0.633,0.057-0.977c0.011-0.299,0.076-0.696,0.19-1.178
			l0.128-0.532l-1.335-0.333l-0.22,0.293c-0.139,0.186-0.345,0.439-0.631,0.774c-0.253,0.298-0.607,0.605-1.05,0.911
			c-0.443,0.307-0.982,0.572-1.603,0.791c-0.608,0.214-1.349,0.323-2.204,0.323c-0.255,0-0.583-0.019-0.975-0.053
			c-0.358-0.033-0.76-0.134-1.194-0.302c-0.431-0.166-0.876-0.432-1.327-0.792c-0.444-0.354-0.865-0.857-1.249-1.489
			c-0.225-0.381-0.4-0.79-0.523-1.216c-0.13-0.448-0.225-0.879-0.282-1.286c-0.06-0.413-0.095-0.8-0.106-1.152
			c-0.005-0.141-0.009-0.273-0.012-0.399h13.381v-0.552c0-0.326-0.006-0.79-0.019-1.392c-0.014-0.632-0.1-1.313-0.255-2.026
			c-0.156-0.716-0.4-1.453-0.725-2.193c-0.339-0.774-0.847-1.481-1.507-2.102c-0.66-0.618-1.505-1.127-2.513-1.511
			c-1.004-0.384-2.25-0.578-3.702-0.578c-1.612,0-3.033,0.273-4.219,0.814c-1.188,0.542-2.187,1.28-2.969,2.195
			c-0.779,0.911-1.367,1.985-1.748,3.195c-0.375,1.192-0.566,2.478-0.566,3.821c0,1.503,0.224,2.873,0.668,4.07
			c0.447,1.211,1.097,2.262,1.93,3.12c0.836,0.863,1.869,1.535,3.07,1.997c1.19,0.456,2.543,0.688,4.021,0.688
			c1.573,0,2.979-0.217,4.177-0.646c1.214-0.436,2.271-1.086,3.145-1.932L124.932,37.111z M121.143,27.617h-8.431
			c0.206-1.481,0.643-2.696,1.303-3.62c0.704-0.986,1.758-1.465,3.224-1.465c0.975,0,1.725,0.224,2.227,0.664
			c0.539,0.474,0.934,1.023,1.175,1.633c0.25,0.641,0.402,1.283,0.447,1.908C121.112,27.08,121.131,27.375,121.143,27.617z"/>
		<path fill="#40608F" d="M130.812,36.725c0.846,0.939,1.946,1.7,3.271,2.265c1.317,0.562,2.916,0.845,4.748,0.845
			c1.294,0,2.448-0.158,3.431-0.473c0.974-0.312,1.777-0.672,2.39-1.07l0.225-0.146l0.024-0.267c0.022-0.27,0.054-0.571,0.092-0.902
			c0.031-0.293,0.129-0.672,0.289-1.127l0.185-0.529l-1.204-0.402l-0.242,0.26c-0.603,0.648-1.352,1.119-2.226,1.398
			c-0.908,0.292-1.73,0.44-2.441,0.44c-0.5,0-1.107-0.089-1.805-0.264c-0.662-0.165-1.31-0.51-1.925-1.025
			c-0.616-0.515-1.149-1.264-1.585-2.227c-0.438-0.968-0.659-2.284-0.659-3.913c0-2.201,0.494-3.957,1.47-5.219
			c0.954-1.235,2.355-1.836,4.28-1.836c0.291,0,0.641,0.03,1.037,0.087c0.361,0.054,0.724,0.173,1.078,0.355
			c0.351,0.181,0.702,0.457,1.043,0.819c0.335,0.357,0.63,0.856,0.877,1.484l0.138,0.35h1.303l0.068-0.475
			c0.046-0.333,0.127-0.759,0.236-1.268c0.104-0.493,0.291-1.093,0.553-1.785l0.167-0.438l-0.406-0.235
			c-0.991-0.573-2.036-0.983-3.104-1.218c-1.055-0.23-2.173-0.348-3.325-0.348c-1.601,0-3.057,0.237-4.33,0.705
			c-1.287,0.473-2.396,1.161-3.292,2.045c-0.898,0.885-1.594,1.961-2.067,3.198c-0.47,1.227-0.708,2.598-0.708,4.076
			c0,1.245,0.19,2.47,0.567,3.637C129.345,34.712,129.968,35.789,130.812,36.725z"/>
		<path fill="#40608F" d="M166.695,33.88c0.509-1.243,0.768-2.662,0.768-4.219c0-1.194-0.185-2.379-0.547-3.524
			c-0.372-1.164-0.981-2.222-1.813-3.147c-0.833-0.925-1.92-1.681-3.231-2.246c-1.309-0.562-2.9-0.847-4.73-0.847
			c-1.45,0-2.808,0.231-4.034,0.688c-1.237,0.46-2.313,1.137-3.197,2.008c-0.884,0.871-1.579,1.939-2.065,3.174
			c-0.482,1.227-0.728,2.613-0.728,4.118c0,1.995,0.333,3.66,0.992,4.949c0.655,1.287,1.493,2.323,2.488,3.08
			c0.99,0.752,2.089,1.274,3.265,1.551c1.143,0.27,2.247,0.406,3.279,0.406c1.478,0,2.859-0.238,4.109-0.707
			c1.26-0.472,2.364-1.165,3.286-2.06C165.458,36.211,166.184,35.126,166.695,33.88z M162.555,29.81
			c0,1.185-0.137,2.255-0.406,3.183c-0.267,0.916-0.64,1.705-1.108,2.346c-0.456,0.622-1.019,1.105-1.67,1.437
			c-0.652,0.331-1.39,0.5-2.192,0.5c-1.547,0-2.757-0.605-3.699-1.851c-0.965-1.276-1.454-3.177-1.454-5.652
			c0-0.171,0.006-0.483,0.019-0.936c0.011-0.427,0.071-0.925,0.177-1.477c0.106-0.552,0.272-1.129,0.496-1.717
			c0.213-0.562,0.521-1.085,0.915-1.558c0.384-0.46,0.882-0.846,1.481-1.146c0.592-0.295,1.348-0.445,2.252-0.445
			c1.091,0,1.973,0.24,2.619,0.713c0.672,0.493,1.199,1.111,1.567,1.837c0.384,0.754,0.648,1.565,0.787,2.413
			C162.481,28.331,162.555,29.123,162.555,29.81z"/>
		<path fill="#40608F" d="M176.281,35.291c-0.036-1.029-0.067-2.04-0.093-3.033c-0.024-0.98-0.043-2.038-0.056-3.144
			c-0.013-1.09-0.019-2.351-0.019-3.854c0-1.653,0.006-3.005,0.019-4.133c0.013-1.142,0.024-2.218,0.037-3.225
			c0.013-0.986,0.037-2.01,0.075-3.044c0.036-1.031,0.08-2.218,0.13-3.561l0.024-0.66l-0.654,0.093
			c-0.354,0.05-0.69,0.101-1.008,0.15c-0.562,0.091-1.258,0.09-1.821,0c-0.314-0.05-0.635-0.099-0.962-0.149l-0.69-0.106
			l0.056,0.696c0.049,0.611,0.086,1.17,0.111,1.662c0.023,0.491,0.043,0.994,0.056,1.497l0.036,1.602
			c0.013,0.565,0.02,1.232,0.02,1.983c0,0.773,0.005,1.677,0.018,2.71c0.013,1.048,0.019,2.281,0.019,3.667v5.742
			c0,1.413-0.006,2.621-0.019,3.592c-0.014,0.975-0.037,1.792-0.073,2.496l-0.17,3.258l0.735-0.198
			c0.263-0.07,0.521-0.13,0.768-0.176c0.229-0.044,0.568-0.065,1.01-0.065c0.468,0,0.836,0.021,1.093,0.066
			c0.27,0.046,0.535,0.104,0.794,0.175l0.727,0.196l-0.03-0.751C176.361,37.485,176.319,36.322,176.281,35.291z"/>
		<path fill="#40608F" d="M198.254,26.318c-0.157-0.714-0.399-1.451-0.725-2.193c-0.34-0.774-0.847-1.481-1.508-2.102
			c-0.659-0.618-1.505-1.127-2.512-1.511c-1.006-0.384-2.251-0.578-3.703-0.578c-1.611,0-3.031,0.273-4.219,0.814
			c-1.188,0.542-2.188,1.28-2.968,2.195c-0.779,0.911-1.367,1.985-1.749,3.195c-0.376,1.192-0.565,2.478-0.565,3.821
			c0,1.503,0.225,2.873,0.668,4.07c0.447,1.211,1.097,2.262,1.93,3.12c0.837,0.863,1.869,1.535,3.07,1.997
			c1.189,0.456,2.544,0.688,4.02,0.688c1.573,0,2.979-0.217,4.178-0.646c1.214-0.436,2.271-1.086,3.145-1.932l0.148-0.144
			l0.017-0.207c0.025-0.303,0.045-0.631,0.058-0.977c0.011-0.297,0.075-0.693,0.19-1.179l0.127-0.532l-1.334-0.333l-0.22,0.293
			c-0.139,0.186-0.345,0.439-0.631,0.774c-0.254,0.298-0.607,0.605-1.051,0.911c-0.442,0.307-0.981,0.572-1.603,0.791
			c-0.608,0.214-1.35,0.323-2.202,0.323c-0.256,0-0.585-0.019-0.977-0.053c-0.358-0.033-0.76-0.134-1.194-0.302
			c-0.431-0.166-0.876-0.432-1.327-0.792c-0.443-0.354-0.864-0.857-1.248-1.489c-0.225-0.381-0.4-0.79-0.523-1.216
			c-0.129-0.448-0.225-0.879-0.282-1.286c-0.059-0.413-0.094-0.8-0.105-1.152c-0.005-0.141-0.009-0.273-0.012-0.399h13.38v-0.552
			c0-0.326-0.007-0.79-0.018-1.392C198.494,27.712,198.408,27.03,198.254,26.318z M193.675,27.617h-8.431
			c0.205-1.481,0.643-2.696,1.302-3.62c0.705-0.986,1.76-1.465,3.226-1.465c0.974,0,1.723,0.224,2.226,0.664
			c0.539,0.474,0.934,1.023,1.174,1.633c0.252,0.641,0.402,1.283,0.448,1.908C193.645,27.08,193.663,27.375,193.675,27.617z"/>
		<path fill="#40608F" d="M200.117,22.769l-0.138,0.701l0.714-0.044c0.399-0.024,0.731-0.05,0.989-0.076
			c0.242-0.023,0.46-0.042,0.651-0.054c0.188-0.012,0.374-0.018,0.563-0.018h0.193l0.001,5.324
			c-0.024,0.872-0.044,1.587-0.056,2.147c-0.014,0.565-0.02,1.017-0.02,1.355v1.287c0,1.22,0.054,2.057,0.162,2.559
			c0.112,0.524,0.256,0.926,0.438,1.227c0.357,0.607,0.89,1.177,1.58,1.691c0.729,0.543,1.7,0.818,2.885,0.818
			c0.454,0,1.02-0.061,1.681-0.177c0.694-0.122,1.29-0.327,1.77-0.608l0.34-0.199l-0.077-0.386
			c-0.059-0.285-0.065-0.411-0.065-0.451c0-0.044,0.008-0.149,0.06-0.35l0.214-0.85l-0.859,0.173
			c-0.233,0.047-0.521,0.094-0.881,0.144c-0.413,0.057-0.623,0.069-0.727,0.069c-1.107,0-1.442-0.489-1.598-0.856
			c-0.305-0.723-0.46-1.818-0.46-3.253c0-1.723,0.013-3.438,0.037-5.101c0.021-1.491,0.064-3.023,0.127-4.563
			c0.573,0.004,1.138,0.016,1.688,0.035c0.717,0.024,1.311,0.049,1.781,0.074l0.71,0.036l-0.141-0.698
			c-0.021-0.104-0.037-0.215-0.048-0.334c-0.011-0.112-0.017-0.264-0.017-0.451c0-0.188,0.006-0.336,0.017-0.455
			c0.012-0.123,0.028-0.251,0.052-0.386l0.116-0.696l-0.704,0.054c-0.624,0.048-1.285,0.092-1.965,0.13
			c-0.473,0.026-0.957,0.042-1.446,0.05c0.015-0.369,0.025-0.687,0.034-0.955c0.012-0.397,0.024-0.788,0.037-1.174
			c0.013-0.382,0.031-0.807,0.056-1.276c0.024-0.47,0.062-1.089,0.111-1.857l0.067-1.027l-0.894,0.511
			c-0.171,0.098-0.416,0.233-0.732,0.403c-0.318,0.171-0.654,0.343-1.003,0.511c-0.347,0.167-0.704,0.325-1.066,0.469
			c-0.342,0.136-0.621,0.227-0.834,0.27l-0.47,0.093l0.025,0.477c0.05,0.959,0.073,1.728,0.073,2.284v1.269
			c-0.137-0.003-0.267-0.007-0.395-0.012c-0.287-0.011-0.552-0.03-0.791-0.054c-0.522-0.05-0.92-0.086-1.194-0.111l-0.711-0.065
			l0.115,0.704c0.022,0.137,0.04,0.267,0.051,0.389c0.01,0.124,0.016,0.276,0.016,0.455c0,0.18-0.006,0.34-0.016,0.475
			C200.154,22.544,200.139,22.662,200.117,22.769z"/>
		<path fill="#40608F" d="M229.647,36.701c-0.041,0.021-0.121,0.053-0.258,0.088c-0.073,0.018-0.204,0.039-0.426,0.039
			c-0.212,0-0.374-0.036-0.457-0.102c-0.088-0.07-0.166-0.224-0.221-0.435c-0.075-0.292-0.12-0.701-0.132-1.216
			c-0.012-0.548-0.018-1.221-0.018-2.057c0-0.246,0.006-0.677,0.018-1.293c0.013-0.619,0.031-1.282,0.057-1.988
			c0.023-0.711,0.042-1.391,0.055-2.041c0.013-0.651,0.02-1.114,0.02-1.39c0-1.24-0.164-2.179-0.504-2.873
			c-0.323-0.66-0.723-1.23-1.201-1.708c-0.815-0.76-1.747-1.263-2.771-1.496c-0.97-0.22-1.845-0.331-2.602-0.331
			c-0.811,0-1.55,0.08-2.198,0.235c-0.638,0.153-1.229,0.348-1.755,0.581c-0.528,0.232-1.001,0.498-1.403,0.788
			c-0.377,0.271-0.716,0.519-1.017,0.745l-0.205,0.153l-0.2,3.265h1.977l0.136-0.358c0.066-0.177,0.177-0.415,0.326-0.704
			c0.132-0.252,0.338-0.509,0.612-0.763c0.273-0.252,0.638-0.474,1.086-0.66c0.44-0.183,1.016-0.275,1.71-0.275
			c1.083,0,1.942,0.307,2.627,0.937c0.67,0.619,0.996,1.464,0.996,2.584c0,0.396-0.065,0.697-0.192,0.871
			c-0.117,0.161-0.382,0.294-0.753,0.383l-3.253,0.712c-0.76,0.178-1.517,0.368-2.253,0.564c-0.801,0.214-1.526,0.534-2.157,0.952
			c-0.653,0.432-1.188,0.995-1.589,1.675c-0.41,0.694-0.617,1.6-0.617,2.691c0,0.576,0.096,1.183,0.284,1.806
			c0.195,0.64,0.523,1.244,0.979,1.797c0.458,0.556,1.051,1.018,1.764,1.375c0.72,0.362,1.619,0.544,2.672,0.544
			c0.768,0,1.47-0.087,2.09-0.263c0.61-0.172,1.164-0.396,1.646-0.663c0.482-0.268,0.917-0.574,1.294-0.91
			c0.121-0.108,0.24-0.216,0.355-0.324c0.248,0.546,0.59,0.98,1.023,1.292c0.628,0.452,1.32,0.682,2.057,0.682
			c0.59,0,1.138-0.102,1.628-0.303c0.436-0.18,0.871-0.372,1.292-0.569l0.33-0.157l-0.081-2.27L229.647,36.701z M223.824,30.124
			v3.454c0,0.43-0.093,0.806-0.284,1.147c-0.205,0.365-0.472,0.692-0.793,0.971c-0.321,0.278-0.689,0.495-1.099,0.645
			c-0.407,0.151-0.819,0.227-1.225,0.227c-0.275,0-0.578-0.044-0.902-0.13c-0.301-0.08-0.582-0.218-0.834-0.41
			c-0.242-0.185-0.453-0.448-0.626-0.782c-0.17-0.329-0.255-0.752-0.255-1.257c0-0.441,0.061-0.864,0.181-1.256
			c0.1-0.331,0.354-0.65,0.754-0.949c0.446-0.335,1.116-0.653,1.988-0.943C221.502,30.581,222.541,30.341,223.824,30.124z"/>
		<path fill="#40608F" d="M238.249,39.872c1.355,0,2.534-0.194,3.504-0.579c0.974-0.387,1.783-0.899,2.406-1.522
			c0.626-0.626,1.089-1.339,1.377-2.119c0.282-0.767,0.426-1.553,0.426-2.336c0-1.004-0.179-1.855-0.528-2.53
			c-0.354-0.675-0.846-1.233-1.466-1.655c-0.591-0.403-1.287-0.728-2.071-0.967c-0.741-0.226-1.53-0.454-2.367-0.681
			c-0.3-0.07-0.649-0.176-1.035-0.317c-0.357-0.129-0.692-0.311-0.995-0.538c-0.297-0.223-0.555-0.497-0.766-0.815
			c-0.19-0.283-0.281-0.634-0.281-1.074c0-0.639,0.229-1.158,0.698-1.587c0.475-0.436,1.222-0.657,2.217-0.657
			c0.269,0,0.621,0.035,1.049,0.104c0.382,0.062,0.729,0.203,1.064,0.434c0.453,0.309,0.75,0.628,0.882,0.946
			c0.166,0.403,0.283,0.733,0.352,0.98l0.11,0.406h1.418l0.04-0.51c0.046-0.613,0.129-1.144,0.244-1.58
			c0.117-0.45,0.274-0.917,0.464-1.39l0.185-0.461l-0.44-0.232c-0.442-0.234-1.071-0.507-1.87-0.812
			c-0.842-0.321-1.956-0.484-3.31-0.484c-1.367,0-2.519,0.211-3.422,0.629c-0.899,0.417-1.628,0.94-2.161,1.557
			c-0.535,0.618-0.912,1.296-1.12,2.018c-0.2,0.693-0.302,1.334-0.302,1.906c0,0.906,0.173,1.694,0.511,2.343
			c0.327,0.627,0.73,1.163,1.198,1.589c0.464,0.423,0.978,0.762,1.526,1.009c0.517,0.232,0.988,0.417,1.394,0.542
			c0.99,0.33,1.792,0.604,2.453,0.836c0.628,0.221,1.126,0.452,1.483,0.687c0.314,0.206,0.539,0.441,0.666,0.698
			c0.136,0.271,0.203,0.626,0.203,1.059c0,0.425-0.083,0.794-0.249,1.096c-0.173,0.314-0.393,0.565-0.675,0.766
			c-0.294,0.21-0.642,0.37-1.035,0.476c-0.78,0.212-1.578,0.222-2.461,0.03c-0.403-0.086-0.82-0.253-1.229-0.491
			c-0.613-0.372-1.032-0.746-1.245-1.111c-0.244-0.421-0.428-0.783-0.539-1.075l-0.175-0.457l-1.262,0.314l-0.068,0.343
			c-0.026,0.13-0.059,0.317-0.097,0.563c-0.035,0.218-0.088,0.463-0.158,0.73c-0.068,0.268-0.153,0.551-0.249,0.841
			c-0.09,0.264-0.188,0.497-0.296,0.69l-0.232,0.42l0.383,0.289c0.078,0.06,0.232,0.165,0.678,0.414
			c0.337,0.188,0.758,0.377,1.255,0.559c0.495,0.183,1.078,0.347,1.734,0.487C236.735,39.799,237.47,39.872,238.249,39.872z"/>
		<path fill="#40608F" d="M94.89,61.797c-0.307-0.39-0.637-0.808-0.991-1.255c-0.354-0.448-0.692-0.885-1.016-1.31
			c-0.324-0.424-0.616-0.81-0.875-1.158c-0.259-0.347-0.442-0.604-0.547-0.769c0.271-0.047,0.603-0.12,0.999-0.221
			c0.395-0.1,0.774-0.263,1.14-0.485c0.365-0.224,0.677-0.531,0.937-0.921c0.259-0.388,0.389-0.901,0.389-1.538
			c0-0.424-0.065-0.815-0.194-1.175c-0.13-0.359-0.366-0.675-0.708-0.945c-0.142-0.119-0.298-0.225-0.469-0.319
			c-0.171-0.093-0.38-0.17-0.627-0.23c-0.247-0.058-0.551-0.104-0.911-0.14c-0.36-0.036-0.804-0.054-1.334-0.054
			c-0.071,0-0.203,0-0.398,0c-0.194,0-0.4,0.003-0.619,0.009c-0.219,0.006-0.425,0.009-0.619,0.009s-0.333,0-0.416,0
			c-0.188,0-0.407-0.003-0.654-0.009c-0.248-0.006-0.542-0.026-0.884-0.062c0.023,1.002,0.046,1.956,0.071,2.864
			c0.023,0.907,0.036,1.773,0.036,2.599c0,1.296-0.01,2.486-0.026,3.571c-0.018,1.084-0.051,2.151-0.098,3.2
			c0.129-0.024,0.259-0.048,0.389-0.071c0.13-0.023,0.312-0.036,0.548-0.036c0.165,0,0.338,0.01,0.522,0.027
			c0.182,0.018,0.349,0.044,0.503,0.08c-0.07-1.427-0.109-2.611-0.115-3.554c-0.006-0.943-0.009-1.732-0.009-2.369h0.46
			c0.341,0.4,0.681,0.811,1.016,1.229c0.336,0.419,0.681,0.866,1.034,1.344c0.354,0.478,0.716,0.99,1.087,1.537
			c0.372,0.549,0.769,1.152,1.193,1.813c0.248-0.024,0.474-0.048,0.681-0.071c0.206-0.023,0.403-0.036,0.593-0.036
			c0.2,0,0.377,0.013,0.53,0.036c0.152,0.023,0.324,0.047,0.513,0.071v-0.213c-0.036-0.046-0.157-0.203-0.363-0.468
			C95.453,62.513,95.196,62.186,94.89,61.797z M90.691,56.854c-0.36,0.042-0.64,0.068-0.84,0.08
			c-0.212,0.012-0.38,0.018-0.504,0.018c-0.124,0-0.269-0.012-0.433-0.035c0-0.095,0-0.235,0-0.424c0-0.189-0.002-0.398-0.009-0.628
			c-0.006-0.229-0.009-0.466-0.009-0.707s0-0.462,0-0.662c0-0.401,0-0.803,0-1.204c0-0.4,0.012-0.801,0.036-1.201
			c0.118-0.023,0.268-0.045,0.452-0.063c0.182-0.017,0.403-0.026,0.662-0.026c0.318,0,0.657,0.024,1.017,0.07
			c0.359,0.048,0.689,0.154,0.99,0.319c0.3,0.164,0.547,0.4,0.743,0.706c0.194,0.308,0.291,0.72,0.291,1.238
			c0,0.613-0.132,1.094-0.397,1.44c-0.265,0.349-0.575,0.605-0.928,0.77C91.407,56.711,91.05,56.814,90.691,56.854z"/>
		<path fill="#40608F" d="M104.083,62.291c-1.05,0.106-1.945,0.169-2.688,0.186c-0.742,0.018-1.397,0.026-1.962,0.026
			c0-0.117-0.003-0.281-0.009-0.494c-0.006-0.212-0.012-0.448-0.018-0.707c-0.006-0.26-0.011-0.521-0.018-0.787
			c-0.006-0.265-0.009-0.516-0.009-0.752c0-0.376,0.003-0.762,0.009-1.157c0.006-0.395,0.015-0.78,0.026-1.159
			c0.224-0.01,0.459-0.019,0.708-0.024c0.248-0.006,0.488-0.01,0.725-0.01c0.377,0,0.813,0.016,1.309,0.043
			c0.495,0.03,0.971,0.075,1.432,0.134c-0.012-0.095-0.026-0.186-0.045-0.274c-0.017-0.087-0.026-0.18-0.026-0.274
			c0-0.129,0.006-0.237,0.019-0.327c0.011-0.088,0.029-0.179,0.053-0.273c-0.696,0.083-1.388,0.127-2.077,0.134
			c-0.69,0.006-1.388,0.002-2.095-0.01c0-0.235-0.002-0.433-0.009-0.591c-0.006-0.161-0.009-0.319-0.009-0.479
			c0-0.158,0-0.334,0-0.522c0-0.188,0-0.424,0-0.706c0-0.26,0-0.48,0-0.663s0-0.345,0-0.486s0.003-0.28,0.009-0.415
			c0.006-0.136,0.015-0.292,0.027-0.469c0.377-0.023,0.677-0.035,0.901-0.035c0.224,0,0.495,0,0.813,0c0.39,0,0.722,0.006,1,0.018
			c0.277,0.012,0.521,0.029,0.734,0.053c0.212,0.023,0.403,0.046,0.574,0.07c0.17,0.024,0.338,0.054,0.503,0.089
			c-0.024-0.095-0.041-0.18-0.053-0.256c-0.011-0.077-0.017-0.18-0.017-0.311c0-0.117,0.006-0.227,0.017-0.326
			c0.012-0.101,0.029-0.197,0.053-0.292c-0.448,0.047-0.896,0.077-1.343,0.089s-0.896,0.018-1.343,0.018
			c-0.625,0-1.241-0.003-1.848-0.009c-0.607-0.006-1.223-0.039-1.848-0.098c0.023,0.436,0.044,0.904,0.062,1.405
			c0.019,0.501,0.032,1.012,0.045,1.529c0.011,0.52,0.02,1.031,0.026,1.538c0.006,0.506,0.009,0.979,0.009,1.414
			c0,0.967-0.006,1.777-0.017,2.431c-0.012,0.654-0.027,1.215-0.044,1.68c-0.019,0.466-0.039,0.87-0.063,1.211
			c-0.024,0.342-0.047,0.678-0.071,1.009c0.684-0.024,1.367-0.048,2.051-0.071s1.367-0.036,2.051-0.036
			c0.413,0,0.821,0.004,1.229,0.01c0.406,0.006,0.815,0.038,1.228,0.098c-0.024-0.095-0.042-0.181-0.053-0.257
			c-0.012-0.077-0.018-0.18-0.018-0.31s0.006-0.239,0.018-0.327C104.041,62.477,104.059,62.386,104.083,62.291z"/>
		<path fill="#40608F" d="M117.156,54.663c-0.147-0.383-0.345-0.754-0.592-1.113c-0.248-0.36-0.566-0.693-0.955-1
			c-0.413-0.329-0.834-0.582-1.264-0.76c-0.431-0.177-0.902-0.307-1.415-0.389s-1.081-0.13-1.706-0.142
			c-0.625-0.012-1.332-0.018-2.122-0.018c-0.967,0-1.933-0.018-2.898-0.053c0.023,0.471,0.043,0.883,0.061,1.237
			c0.018,0.354,0.033,0.714,0.045,1.078c0.01,0.366,0.02,0.772,0.026,1.22c0.006,0.447,0.009,1.003,0.009,1.663
			c0,1.014-0.006,1.867-0.018,2.562c-0.011,0.697-0.026,1.304-0.044,1.821c-0.018,0.52-0.038,0.984-0.062,1.397
			c-0.023,0.412-0.054,0.843-0.088,1.291c0.248-0.013,0.465-0.024,0.654-0.036c0.189-0.012,0.354-0.021,0.495-0.026
			c0.142-0.006,0.271-0.009,0.389-0.009c0.117,0,0.235,0,0.354,0c0.118,0,0.321,0.003,0.61,0.009
			c0.289,0.006,0.59,0.015,0.902,0.026s0.595,0.021,0.849,0.027c0.253,0.005,0.403,0.009,0.45,0.009c0.884,0,1.73-0.128,2.538-0.381
			c0.807-0.253,1.52-0.643,2.139-1.167c0.619-0.523,1.114-1.193,1.486-2.006c0.371-0.813,0.556-1.78,0.556-2.899
			c0-0.39-0.029-0.781-0.088-1.176S117.304,55.046,117.156,54.663z M115.512,58.367c-0.053,0.412-0.15,0.824-0.291,1.237
			c-0.142,0.412-0.342,0.807-0.601,1.185c-0.26,0.377-0.596,0.713-1.008,1.008c-0.307,0.212-0.631,0.377-0.972,0.494
			c-0.342,0.119-0.681,0.203-1.017,0.257c-0.335,0.053-0.65,0.083-0.945,0.089s-0.536,0.008-0.725,0.008
			c-0.425,0-0.77-0.008-1.035-0.026c-0.266-0.018-0.551-0.043-0.857-0.079c-0.012-0.437-0.021-0.81-0.027-1.123
			c-0.006-0.312-0.012-0.646-0.018-0.999c-0.006-0.353-0.009-0.777-0.009-1.272s0-1.149,0-1.962c0-0.813,0.006-1.656,0.018-2.528
			c0.012-0.873,0.036-1.716,0.071-2.528c0.141-0.012,0.262-0.024,0.363-0.035c0.099-0.012,0.203-0.021,0.309-0.026
			c0.106-0.007,0.227-0.009,0.362-0.009c0.135,0,0.309,0,0.521,0c0.354,0,0.71,0.006,1.069,0.017c0.36,0.013,0.716,0.048,1.07,0.107
			c0.353,0.059,0.701,0.149,1.042,0.273s0.666,0.304,0.972,0.539c0.366,0.283,0.666,0.598,0.902,0.945
			c0.235,0.349,0.418,0.711,0.548,1.088s0.218,0.755,0.266,1.132c0.047,0.377,0.07,0.73,0.07,1.062
			C115.591,57.571,115.565,57.954,115.512,58.367z"/>
		<path fill="#40608F" d="M134.543,55.591c0.023-1.426,0.077-2.881,0.16-4.366c-0.143,0.035-0.286,0.062-0.434,0.079
			c-0.148,0.019-0.334,0.027-0.558,0.027c-0.234,0-0.425-0.009-0.565-0.027c-0.142-0.018-0.283-0.044-0.424-0.079
			c0.023,0.625,0.044,1.132,0.062,1.52c0.018,0.39,0.029,0.755,0.036,1.097c0.006,0.342,0.009,0.701,0.009,1.079
			c0,0.377-0.007,0.865-0.018,1.468c-0.271,0.011-0.528,0.019-0.771,0.024c-0.24,0.007-0.491,0.013-0.751,0.019
			c-0.259,0.006-0.529,0.009-0.813,0.009c-0.282,0-0.595,0-0.937,0c-0.59,0-1.176-0.006-1.759-0.019
			c-0.583-0.011-1.17-0.027-1.759-0.052c-0.013-0.496-0.013-1.017,0-1.564c0.011-0.548,0.023-1.067,0.034-1.556
			c0.012-0.489,0.027-0.917,0.045-1.281c0.018-0.366,0.033-0.613,0.045-0.743c-0.142,0.035-0.284,0.062-0.425,0.079
			c-0.141,0.019-0.33,0.027-0.565,0.027c-0.236,0-0.424-0.009-0.566-0.027c-0.142-0.018-0.282-0.044-0.425-0.079
			c0.036,0.99,0.065,1.786,0.09,2.387c0.022,0.601,0.037,1.097,0.044,1.485c0.006,0.389,0.011,0.718,0.018,0.989
			c0.005,0.271,0.009,0.577,0.009,0.92c0,0.577-0.004,1.09-0.009,1.537c-0.007,0.449-0.018,0.905-0.036,1.371
			c-0.017,0.465-0.041,0.976-0.07,1.528c-0.03,0.555-0.068,1.227-0.115,2.017c0.154-0.024,0.31-0.048,0.468-0.071
			c0.16-0.023,0.34-0.036,0.541-0.036c0.2,0,0.373,0.013,0.521,0.036s0.292,0.047,0.433,0.071c-0.011-0.331-0.021-0.616-0.026-0.858
			c-0.006-0.241-0.008-0.483-0.008-0.725s0-0.5,0-0.777c0-0.278,0-0.616,0-1.018v-2.635c0.33-0.01,0.615-0.019,0.857-0.024
			c0.241-0.006,0.477-0.01,0.707-0.01s0.486,0,0.768,0c0.284,0,0.637,0,1.062,0c0.436,0,0.805,0,1.105,0
			c0.3,0,0.571,0.004,0.813,0.01c0.241,0.006,0.475,0.012,0.697,0.018c0.224,0.005,0.483,0.013,0.779,0.025v2.652
			c0,0.105-0.004,0.294-0.01,0.565s-0.015,0.568-0.026,0.893c-0.013,0.324-0.026,0.657-0.044,1
			c-0.018,0.341-0.033,0.635-0.045,0.884c0.224-0.036,0.412-0.063,0.567-0.08c0.152-0.018,0.3-0.027,0.44-0.027
			c0.153,0,0.304,0.013,0.451,0.036c0.148,0.023,0.303,0.047,0.469,0.071c-0.024-0.437-0.042-0.808-0.054-1.114
			c-0.013-0.307-0.023-0.596-0.035-0.866c-0.012-0.271-0.018-0.545-0.018-0.822s0-0.592,0-0.945
			C134.508,58.391,134.521,57.019,134.543,55.591z"/>
		<path fill="#40608F" d="M148.739,52.647c-0.601-0.524-1.306-0.92-2.112-1.185s-1.671-0.397-2.589-0.397
			c-1.085,0-2.049,0.155-2.892,0.469c-0.842,0.312-1.556,0.748-2.139,1.308c-0.584,0.561-1.028,1.229-1.335,2.007
			c-0.306,0.778-0.46,1.639-0.46,2.582c0,0.978,0.165,1.855,0.495,2.634c0.33,0.777,0.789,1.438,1.38,1.979
			c0.589,0.542,1.289,0.958,2.103,1.246c0.813,0.289,1.704,0.434,2.671,0.434c1.048,0,1.994-0.166,2.837-0.495
			c0.842-0.33,1.558-0.787,2.148-1.371c0.589-0.583,1.043-1.271,1.36-2.067c0.318-0.796,0.478-1.653,0.478-2.571
			c0-0.991-0.174-1.869-0.522-2.636C149.815,53.817,149.341,53.172,148.739,52.647z M148.315,59.72
			c-0.236,0.701-0.566,1.292-0.989,1.776c-0.425,0.483-0.93,0.849-1.513,1.096c-0.583,0.248-1.223,0.371-1.918,0.371
			c-0.683,0-1.311-0.126-1.883-0.38c-0.571-0.253-1.063-0.619-1.476-1.096c-0.413-0.479-0.734-1.062-0.965-1.751
			c-0.229-0.689-0.344-1.463-0.344-2.324c0-1.002,0.135-1.855,0.407-2.563c0.271-0.708,0.627-1.285,1.069-1.732
			c0.441-0.448,0.945-0.775,1.511-0.981c0.566-0.206,1.143-0.309,1.733-0.309c0.295,0,0.621,0.032,0.98,0.097
			c0.36,0.065,0.719,0.176,1.078,0.335c0.36,0.159,0.704,0.375,1.034,0.646c0.331,0.271,0.612,0.607,0.849,1.009
			c0.153,0.259,0.28,0.539,0.38,0.839c0.102,0.301,0.181,0.602,0.239,0.902c0.06,0.301,0.1,0.595,0.125,0.884
			c0.022,0.288,0.034,0.545,0.034,0.769C148.669,58.214,148.551,59.018,148.315,59.72z"/>
		<path fill="#40608F" d="M160.124,58.597c-0.069-0.2-0.171-0.398-0.3-0.593c-0.129-0.193-0.295-0.373-0.495-0.539
			c-0.153-0.129-0.3-0.237-0.442-0.327c-0.141-0.089-0.312-0.179-0.513-0.273c-0.199-0.094-0.45-0.201-0.751-0.318
			c-0.3-0.118-0.691-0.271-1.176-0.46c-0.224-0.083-0.457-0.183-0.699-0.301c-0.242-0.117-0.464-0.259-0.67-0.424
			s-0.376-0.368-0.505-0.61c-0.128-0.241-0.194-0.539-0.194-0.892c0-0.154,0.026-0.346,0.08-0.575
			c0.053-0.23,0.162-0.453,0.326-0.671c0.166-0.219,0.396-0.404,0.69-0.558c0.294-0.154,0.683-0.229,1.167-0.229
			c0.4,0,0.745,0.053,1.034,0.159c0.288,0.105,0.527,0.241,0.716,0.406c0.188,0.164,0.339,0.344,0.451,0.539
			c0.111,0.194,0.196,0.373,0.255,0.539h0.249c0.011-0.153,0.037-0.31,0.079-0.468c0.041-0.16,0.088-0.311,0.142-0.452
			c0.053-0.141,0.105-0.268,0.158-0.379c0.054-0.113,0.098-0.203,0.134-0.275c-0.106-0.069-0.257-0.152-0.451-0.247
			c-0.194-0.094-0.425-0.183-0.689-0.266c-0.266-0.082-0.557-0.152-0.876-0.212c-0.317-0.059-0.648-0.089-0.989-0.089
			c-0.518,0-1.018,0.071-1.494,0.213c-0.478,0.142-0.896,0.357-1.255,0.646c-0.36,0.289-0.646,0.648-0.858,1.078
			c-0.212,0.432-0.317,0.929-0.317,1.494c0,0.413,0.07,0.82,0.212,1.22c0.142,0.401,0.365,0.725,0.673,0.973
			c0.117,0.106,0.231,0.197,0.344,0.273c0.111,0.077,0.263,0.159,0.451,0.249c0.188,0.087,0.437,0.2,0.742,0.335
			c0.307,0.135,0.719,0.309,1.237,0.521c0.295,0.118,0.576,0.245,0.84,0.382c0.266,0.134,0.497,0.297,0.698,0.484
			c0.201,0.189,0.359,0.41,0.478,0.664c0.117,0.253,0.177,0.556,0.177,0.91c0,0.282-0.05,0.566-0.15,0.849
			c-0.1,0.282-0.257,0.533-0.468,0.752c-0.213,0.218-0.483,0.397-0.813,0.538c-0.331,0.143-0.726,0.213-1.186,0.213
			c-0.706,0-1.311-0.174-1.812-0.521c-0.502-0.347-0.882-0.787-1.141-1.317h-0.229c-0.013,0.118-0.035,0.313-0.072,0.583
			c-0.034,0.271-0.117,0.631-0.247,1.078c0.46,0.343,0.964,0.591,1.512,0.743c0.548,0.153,1.117,0.23,1.707,0.23
			c0.788,0,1.464-0.118,2.023-0.354c0.559-0.235,1.02-0.544,1.378-0.928c0.36-0.382,0.623-0.807,0.788-1.273
			c0.165-0.465,0.247-0.928,0.247-1.387c0-0.166-0.015-0.346-0.044-0.54C160.245,58.994,160.195,58.797,160.124,58.597z"/>
		<path fill="#40608F" d="M169.018,51.684c-0.425-0.2-0.917-0.317-1.476-0.353c-0.562-0.036-1.177-0.054-1.85-0.054
			c-0.694,0-1.271-0.003-1.731-0.01c-0.46-0.005-0.86-0.02-1.201-0.043c0.022,0.318,0.043,0.621,0.061,0.91
			c0.019,0.289,0.032,0.609,0.044,0.963c0.013,0.354,0.021,0.762,0.027,1.221s0.009,1.021,0.009,1.679
			c0,1.249-0.009,2.492-0.026,3.731c-0.019,1.237-0.056,2.481-0.114,3.73c0.129-0.024,0.258-0.048,0.389-0.071
			c0.129-0.023,0.312-0.036,0.548-0.036c0.26,0,0.457,0.013,0.592,0.036c0.136,0.023,0.28,0.047,0.434,0.071
			c-0.024-0.425-0.045-0.834-0.063-1.229c-0.017-0.395-0.032-0.802-0.044-1.221c-0.012-0.418-0.017-0.867-0.017-1.352
			c0-0.483,0-1.031,0-1.645c0.141,0.013,0.281,0.021,0.424,0.027c0.141,0.007,0.281,0.009,0.425,0.009
			c0.27,0,0.562-0.012,0.874-0.036c0.312-0.023,0.624-0.061,0.937-0.115c0.312-0.052,0.616-0.126,0.912-0.221
			c0.294-0.094,0.559-0.218,0.795-0.371c0.176-0.117,0.365-0.263,0.565-0.433c0.2-0.171,0.386-0.374,0.556-0.61
			c0.172-0.235,0.311-0.512,0.416-0.831c0.106-0.317,0.16-0.678,0.16-1.079c0-0.601-0.14-1.13-0.415-1.591
			C169.97,52.303,169.559,51.943,169.018,51.684z M168.337,56.104c-0.265,0.378-0.601,0.654-1.007,0.831s-0.855,0.281-1.344,0.309
			c-0.491,0.03-0.952,0.039-1.388,0.027c-0.013-0.931-0.019-1.835-0.019-2.714c0-0.878,0.006-1.7,0.019-2.466
			c0.163-0.023,0.34-0.042,0.529-0.053c0.188-0.012,0.353-0.018,0.495-0.018c0.448,0,0.9,0.059,1.361,0.177
			c0.46,0.116,0.843,0.318,1.149,0.601c0.224,0.213,0.38,0.469,0.468,0.769c0.089,0.302,0.133,0.623,0.133,0.964
			C168.734,55.202,168.602,55.728,168.337,56.104z"/>
		<path fill="#40608F" d="M174.833,51.225c-0.152,0.035-0.3,0.062-0.441,0.079c-0.142,0.019-0.336,0.027-0.583,0.027
			c-0.236,0-0.423-0.009-0.557-0.027c-0.137-0.018-0.274-0.044-0.416-0.079c0.023,0.543,0.042,1.005,0.054,1.389
			c0.012,0.382,0.022,0.724,0.035,1.024c0.012,0.3,0.02,0.571,0.026,0.813c0.005,0.242,0.008,0.495,0.008,0.76s0,0.552,0,0.857
			c0,0.308,0,0.672,0,1.097c0,0.872-0.003,1.597-0.008,2.173c-0.007,0.579-0.018,1.095-0.035,1.549
			c-0.018,0.453-0.035,0.874-0.053,1.264c-0.019,0.389-0.045,0.825-0.08,1.309c0.142-0.024,0.282-0.048,0.425-0.071
			c0.141-0.023,0.312-0.036,0.513-0.036c0.2,0,0.391,0.013,0.573,0.036c0.184,0.023,0.356,0.047,0.522,0.071
			c-0.013-0.331-0.027-0.675-0.044-1.034c-0.018-0.36-0.033-0.771-0.045-1.229s-0.021-0.984-0.026-1.573
			c-0.007-0.59-0.01-1.284-0.01-2.086c0-1.061,0.01-2.113,0.027-3.156S174.775,52.285,174.833,51.225z"/>
		<path fill="#40608F" d="M186.184,51.225c-0.283,0.023-0.606,0.043-0.972,0.062c-0.366,0.018-0.755,0.029-1.168,0.036
			c-0.413,0.006-0.84,0.009-1.282,0.009c-0.441,0-0.88,0-1.315,0c-0.354,0-0.75,0-1.186,0c-0.437,0-0.871-0.003-1.308-0.009
			c-0.437-0.007-0.854-0.019-1.255-0.036c-0.401-0.019-0.737-0.038-1.008-0.062c0.022,0.095,0.04,0.186,0.052,0.273
			c0.012,0.089,0.019,0.203,0.019,0.345c0,0.131-0.007,0.242-0.019,0.337c-0.012,0.094-0.029,0.188-0.052,0.281
			c0.389-0.075,0.907-0.131,1.556-0.163c0.647-0.033,1.438-0.055,2.369-0.065c0.012,0.601,0.021,1.268,0.026,2.003
			c0.005,0.735,0.009,1.51,0.009,2.321c0,1.2-0.015,2.406-0.044,3.618c-0.03,1.213-0.08,2.307-0.151,3.284
			c0.083-0.024,0.206-0.048,0.372-0.071c0.164-0.023,0.347-0.036,0.548-0.036c0.071,0,0.2,0.007,0.389,0.019
			s0.436,0.041,0.743,0.089c-0.048-0.671-0.079-1.342-0.098-2.013c-0.018-0.671-0.03-1.329-0.035-1.978
			c-0.007-0.646-0.007-1.273,0-1.879c0.005-0.605,0.008-1.175,0.008-1.704c0-0.601,0.003-1.206,0.01-1.817
			c0.006-0.611,0.014-1.224,0.026-1.836c1.062,0.011,1.886,0.041,2.475,0.09c0.59,0.05,1.02,0.096,1.291,0.139
			c-0.023-0.093-0.042-0.188-0.054-0.281c-0.012-0.095-0.018-0.206-0.018-0.337c0-0.13,0.006-0.244,0.018-0.345
			C186.142,51.398,186.16,51.308,186.184,51.225z"/>
		<path fill="#40608F" d="M196.693,61.045c-0.312-0.712-0.666-1.518-1.061-2.413c-0.396-0.896-0.79-1.801-1.185-2.714
			s-0.766-1.792-1.113-2.634c-0.348-0.843-0.634-1.576-0.857-2.202c-0.071,0.024-0.133,0.04-0.187,0.045
			c-0.053,0.007-0.12,0.01-0.203,0.01c-0.095,0-0.174-0.006-0.238-0.019c-0.065-0.012-0.133-0.023-0.203-0.036
			c-0.212,0.531-0.457,1.127-0.733,1.787c-0.278,0.659-0.572,1.352-0.885,2.077c-0.312,0.724-0.64,1.47-0.98,2.236
			c-0.342,0.767-0.682,1.517-1.018,2.254c-0.335,0.735-0.66,1.45-0.972,2.139c-0.313,0.689-0.599,1.317-0.856,1.884
			c0.117-0.024,0.234-0.048,0.353-0.071c0.117-0.023,0.26-0.036,0.425-0.036c0.164,0,0.301,0.013,0.405,0.036
			c0.107,0.023,0.213,0.047,0.319,0.071c0.294-1.132,0.599-2.083,0.911-2.856c0.312-0.771,0.556-1.363,0.733-1.776h4.473
			c0.223,0.495,0.5,1.123,0.83,1.883c0.329,0.761,0.648,1.677,0.954,2.75c0.166-0.024,0.337-0.048,0.514-0.071
			c0.176-0.023,0.382-0.036,0.618-0.036c0.225,0,0.416,0.013,0.574,0.036c0.16,0.023,0.316,0.047,0.47,0.071
			c0-0.013-0.104-0.239-0.31-0.681C197.265,62.336,197.006,61.758,196.693,61.045z M189.701,57.925l1.857-4.385l1.908,4.385H189.701
			z"/>
		<path fill="#40608F" d="M206.196,62.273c-0.201,0.035-0.439,0.068-0.716,0.098c-0.278,0.03-0.561,0.054-0.849,0.07
			c-0.289,0.019-0.578,0.03-0.867,0.035c-0.288,0.006-0.545,0.009-0.769,0.009s-0.447,0-0.672,0c-0.224,0-0.548-0.011-0.973-0.035
			c0-0.918,0-1.729,0-2.431c0-0.701,0.003-1.34,0.01-1.919c0.006-0.576,0.012-1.118,0.018-1.625
			c0.006-0.506,0.015-1.022,0.026-1.547c0.011-0.525,0.025-1.084,0.043-1.68c0.019-0.595,0.039-1.27,0.063-2.024
			c-0.166,0.023-0.333,0.047-0.505,0.07c-0.171,0.024-0.374,0.036-0.61,0.036c-0.224,0-0.403-0.012-0.539-0.036
			c-0.135-0.023-0.273-0.047-0.415-0.07c0.012,0.188,0.023,0.483,0.036,0.883c0.012,0.402,0.026,0.864,0.044,1.389
			s0.031,1.09,0.043,1.697c0.012,0.606,0.019,1.211,0.019,1.813c0,0.577-0.004,1.131-0.01,1.662
			c-0.006,0.53-0.012,1.058-0.018,1.582s-0.02,1.049-0.043,1.573s-0.054,1.069-0.089,1.636c0.235-0.013,0.45-0.024,0.646-0.036
			c0.193-0.012,0.397-0.023,0.609-0.035c0.213-0.012,0.451-0.021,0.718-0.026c0.264-0.006,0.591-0.01,0.979-0.01
			c0.484,0,0.899,0.004,1.246,0.01c0.348,0.006,0.666,0.015,0.955,0.026s0.561,0.023,0.813,0.035s0.521,0.023,0.805,0.036
			c-0.024-0.071-0.042-0.153-0.054-0.249c-0.011-0.094-0.017-0.212-0.017-0.353c0-0.13,0.006-0.239,0.017-0.327
			C206.154,62.441,206.172,62.357,206.196,62.273z"/>
		<path fill="#40608F" d="M216.936,61.045c-0.313-0.712-0.666-1.518-1.061-2.413c-0.396-0.896-0.789-1.801-1.184-2.714
			s-0.768-1.792-1.114-2.634c-0.348-0.843-0.634-1.576-0.858-2.202c-0.071,0.024-0.131,0.04-0.186,0.045
			c-0.053,0.007-0.119,0.01-0.203,0.01c-0.095,0-0.174-0.006-0.238-0.019c-0.065-0.012-0.133-0.023-0.203-0.036
			c-0.212,0.531-0.457,1.127-0.733,1.787c-0.278,0.659-0.572,1.352-0.885,2.077c-0.313,0.724-0.639,1.47-0.981,2.236
			c-0.341,0.767-0.68,1.517-1.017,2.254c-0.335,0.735-0.659,1.45-0.973,2.139c-0.312,0.689-0.598,1.317-0.856,1.884
			c0.117-0.024,0.234-0.048,0.354-0.071c0.117-0.023,0.259-0.036,0.425-0.036c0.165,0,0.3,0.013,0.406,0.036
			c0.105,0.023,0.212,0.047,0.318,0.071c0.294-1.132,0.598-2.083,0.911-2.856c0.312-0.771,0.556-1.363,0.732-1.776h4.474
			c0.224,0.495,0.5,1.123,0.831,1.883c0.329,0.761,0.648,1.677,0.954,2.75c0.164-0.024,0.336-0.048,0.513-0.071
			s0.383-0.036,0.619-0.036c0.224,0,0.416,0.013,0.574,0.036c0.159,0.023,0.315,0.047,0.469,0.071c0-0.013-0.104-0.239-0.31-0.681
			C217.507,62.336,217.247,61.758,216.936,61.045z M209.943,57.925l1.856-4.385l1.908,4.385H209.943z"/>
		<path fill="#40608F" d="M227.445,61.797c-0.306-0.39-0.637-0.808-0.989-1.255c-0.354-0.448-0.693-0.885-1.017-1.31
			c-0.325-0.424-0.616-0.81-0.875-1.158c-0.26-0.347-0.442-0.604-0.548-0.769c0.27-0.047,0.604-0.12,0.998-0.221
			c0.396-0.1,0.774-0.263,1.14-0.485c0.367-0.224,0.679-0.531,0.938-0.921c0.259-0.388,0.389-0.901,0.389-1.538
			c0-0.424-0.065-0.815-0.194-1.175c-0.13-0.359-0.365-0.675-0.708-0.945c-0.141-0.119-0.298-0.225-0.468-0.319
			c-0.172-0.093-0.381-0.17-0.627-0.23c-0.248-0.058-0.553-0.104-0.911-0.14c-0.359-0.036-0.805-0.054-1.336-0.054
			c-0.069,0-0.203,0-0.397,0s-0.4,0.003-0.618,0.009c-0.219,0.006-0.425,0.009-0.619,0.009c-0.193,0-0.332,0-0.415,0
			c-0.188,0-0.407-0.003-0.654-0.009s-0.543-0.026-0.883-0.062c0.022,1.002,0.046,1.956,0.069,2.864
			c0.024,0.907,0.036,1.773,0.036,2.599c0,1.296-0.009,2.486-0.026,3.571c-0.019,1.084-0.051,2.151-0.098,3.2
			c0.129-0.024,0.26-0.048,0.389-0.071s0.312-0.036,0.548-0.036c0.166,0,0.34,0.01,0.522,0.027c0.182,0.018,0.35,0.044,0.503,0.08
			c-0.069-1.427-0.109-2.611-0.114-3.554c-0.007-0.943-0.01-1.732-0.01-2.369h0.461c0.342,0.4,0.68,0.811,1.016,1.229
			c0.336,0.419,0.682,0.866,1.034,1.344c0.354,0.478,0.716,0.99,1.089,1.537c0.37,0.549,0.769,1.152,1.191,1.813
			c0.248-0.024,0.476-0.048,0.682-0.071s0.403-0.036,0.592-0.036c0.2,0,0.378,0.013,0.53,0.036c0.153,0.023,0.324,0.047,0.513,0.071
			v-0.213c-0.035-0.046-0.155-0.203-0.361-0.468C228.009,62.513,227.753,62.186,227.445,61.797z M223.246,56.854
			c-0.358,0.042-0.639,0.068-0.84,0.08c-0.212,0.012-0.38,0.018-0.503,0.018s-0.268-0.012-0.434-0.035c0-0.095,0-0.235,0-0.424
			c0-0.189-0.002-0.398-0.009-0.628c-0.006-0.229-0.009-0.466-0.009-0.707s0-0.462,0-0.662c0-0.401,0-0.803,0-1.204
			c0-0.4,0.012-0.801,0.036-1.201c0.117-0.023,0.268-0.045,0.451-0.063c0.182-0.017,0.403-0.026,0.662-0.026
			c0.317,0,0.657,0.024,1.018,0.07c0.358,0.048,0.688,0.154,0.989,0.319c0.3,0.164,0.548,0.4,0.742,0.706
			c0.194,0.308,0.291,0.72,0.291,1.238c0,0.613-0.131,1.094-0.396,1.44c-0.266,0.349-0.574,0.605-0.929,0.77
			C223.963,56.711,223.607,56.814,223.246,56.854z"/>
		<path fill="#40608F" d="M232.607,51.225c-0.153,0.035-0.3,0.062-0.442,0.079c-0.141,0.019-0.336,0.027-0.582,0.027
			c-0.237,0-0.422-0.009-0.557-0.027c-0.136-0.018-0.274-0.044-0.416-0.079c0.023,0.543,0.042,1.005,0.053,1.389
			c0.012,0.382,0.024,0.724,0.036,1.024c0.011,0.3,0.02,0.571,0.025,0.813c0.007,0.242,0.01,0.495,0.01,0.76s0,0.552,0,0.857
			c0,0.308,0,0.672,0,1.097c0,0.872-0.003,1.597-0.01,2.173c-0.006,0.579-0.017,1.095-0.034,1.549
			c-0.019,0.453-0.035,0.874-0.053,1.264c-0.019,0.389-0.045,0.825-0.081,1.309c0.143-0.024,0.283-0.048,0.425-0.071
			c0.143-0.023,0.313-0.036,0.514-0.036c0.2,0,0.392,0.013,0.574,0.036c0.182,0.023,0.356,0.047,0.521,0.071
			c-0.012-0.331-0.027-0.675-0.044-1.034c-0.018-0.36-0.033-0.771-0.045-1.229s-0.021-0.984-0.026-1.573
			c-0.007-0.59-0.009-1.284-0.009-2.086c0-1.061,0.009-2.113,0.026-3.156S232.549,52.285,232.607,51.225z"/>
		<path fill="#40608F" d="M244.833,61.045c-0.313-0.712-0.665-1.518-1.061-2.413c-0.395-0.896-0.79-1.801-1.185-2.714
			c-0.396-0.913-0.767-1.792-1.114-2.634c-0.347-0.843-0.634-1.576-0.856-2.202c-0.071,0.024-0.134,0.04-0.187,0.045
			c-0.052,0.007-0.121,0.01-0.203,0.01c-0.095,0-0.174-0.006-0.237-0.019c-0.066-0.012-0.134-0.023-0.205-0.036
			c-0.212,0.531-0.456,1.127-0.734,1.787c-0.275,0.659-0.57,1.352-0.882,2.077c-0.313,0.724-0.64,1.47-0.982,2.236
			c-0.342,0.767-0.68,1.517-1.016,2.254c-0.336,0.735-0.661,1.45-0.973,2.139c-0.313,0.689-0.598,1.317-0.858,1.884
			c0.117-0.024,0.236-0.048,0.354-0.071c0.119-0.023,0.261-0.036,0.425-0.036s0.301,0.013,0.407,0.036
			c0.105,0.023,0.211,0.047,0.318,0.071c0.293-1.132,0.598-2.083,0.909-2.856c0.313-0.771,0.558-1.363,0.734-1.776h4.473
			c0.224,0.495,0.502,1.123,0.831,1.883c0.331,0.761,0.648,1.677,0.955,2.75c0.164-0.024,0.335-0.048,0.513-0.071
			c0.176-0.023,0.382-0.036,0.618-0.036c0.225,0,0.416,0.013,0.575,0.036s0.314,0.047,0.468,0.071c0-0.013-0.103-0.239-0.309-0.681
			C245.405,62.336,245.145,61.758,244.833,61.045z M237.841,57.925l1.856-4.385l1.909,4.385H237.841z"/>
	</g>
	<g>
		<g>
			<path fill-rule="evenodd" clip-rule="evenodd" fill="#40608F" d="M0,45.359c0-8.692,6.578-15.736,14.694-15.736v15.736H0z"/>
		</g>
		<g>
			<path fill-rule="evenodd" clip-rule="evenodd" fill="#40608F" d="M43.729,14.619c8.287,0,15.005,6.718,15.005,15.004H43.729
				V14.619z"/>
		</g>
		<g>
			<path fill-rule="evenodd" clip-rule="evenodd" fill="#C1A0DA" d="M58.612,29.623c8.354,0,15.127,7.044,15.127,15.736H58.612
				V29.623z"/>
		</g>
		<g>
			<path fill-rule="evenodd" clip-rule="evenodd" fill="#C1A0DA" d="M43.729,75c-8.018,0-14.517-6.718-14.517-15.004h14.517V75z"/>
		</g>
		<g>
			<path fill-rule="evenodd" clip-rule="evenodd" fill="#40608F" d="M14.745,45.312h14.518v15.127c0,0-0.612-8.175-5.246-11.101
				C19.379,46.409,14.745,45.312,14.745,45.312z"/>
		</g>
		<g>
			<path fill-rule="evenodd" clip-rule="evenodd" fill="#40608F" d="M43.78,59.767V45.251h15.127c0,0-8.173,0.609-11.102,5.246
				C44.878,55.133,43.78,59.767,43.78,59.767z"/>
		</g>
		<g>
			<path fill-rule="evenodd" clip-rule="evenodd" fill="#C1A0DA" d="M29.042,29.641c-8.186,0-14.823-6.635-14.823-14.821
				C14.219,6.635,20.856,0,29.042,0c8.186,0,14.823,6.635,14.823,14.82H29.042V29.641z"/>
		</g>
	</g>
</g>
</svg>
